<svg xmlns="http://www.w3.org/2000/svg" width="214" height="150" fill="none" viewBox="0 0 214 150">
  <path fill="#8484C5" d="M.26 101.787L186.665.752s-1.836 9.971 1.267 11.715c3.103 1.743 10.003-2.21 8.893 2.356-.973 2.372-1.15 5.098-.504 7.767a14.343 14.343 0 004.085 7.024c5.443 5.858 5.275 9.528 3.736 12.175-1.54 2.648 11.299 4.944 8.652 6.358-2.648 1.414-191.074 101-191.074 101s1.638-11.388-1.651-12.553c-3.29-1.166-11.662 4.107-11.68-5.084-.018-9.191 1.61-12.925-3.712-14.485-5.322-1.56-.426-10.769-2.12-11.606a5.392 5.392 0 01-1.52-1.579 5.424 5.424 0 01-.779-2.053z"/>
  <path fill="url(#paint0_linear)" fill-opacity=".2" d="M.26 101.787L186.665.752s-1.836 9.971 1.267 11.715c3.103 1.743 10.003-2.21 8.893 2.356-.973 2.372-1.15 5.098-.504 7.767a14.343 14.343 0 004.085 7.024c5.443 5.858 5.275 9.528 3.736 12.175-1.54 2.648 11.299 4.944 8.652 6.358-2.648 1.414-191.074 101-191.074 101s1.638-11.388-1.651-12.553c-3.29-1.166-11.662 4.107-11.68-5.084-.018-9.191 1.61-12.925-3.712-14.485-5.322-1.56-.426-10.769-2.12-11.606a5.392 5.392 0 01-1.52-1.579 5.424 5.424 0 01-.779-2.053z"/>
  <defs>
    <linearGradient id="paint0_linear" x1="183.756" x2="211.993" y1="190.459" y2="257.564" gradientUnits="userSpaceOnUse">
      <stop stop-opacity="0"/>
      <stop offset=".984" stop-color="#4C4C6D"/>
    </linearGradient>
  </defs>
</svg>
