<svg xmlns="http://www.w3.org/2000/svg" width="214" height="149" fill="none" viewBox="0 0 214 149">
  <path fill="#8484C5" d="M.737 101.455L187.143.42s-1.836 9.97 1.267 11.714c3.103 1.744 10.004-2.21 8.893 2.357-.973 2.372-1.15 5.098-.504 7.767a14.343 14.343 0 004.085 7.024c5.443 5.858 5.276 9.528 3.736 12.175-1.539 2.648 11.299 4.944 8.652 6.358-2.647 1.414-191.074 100.999-191.074 100.999s1.638-11.387-1.651-12.553c-3.29-1.165-11.662 4.108-11.68-5.083-.018-9.191 1.61-12.925-3.712-14.485-5.322-1.56-.426-10.769-2.12-11.606a5.417 5.417 0 01-1.52-1.579 5.43 5.43 0 01-.778-2.053z"/>
  <path fill="url(#paint0_linear)" fill-opacity=".2" d="M.737 101.455L187.143.42s-1.836 9.97 1.267 11.714c3.103 1.744 10.004-2.21 8.893 2.357-.973 2.372-1.15 5.098-.504 7.767a14.343 14.343 0 004.085 7.024c5.443 5.858 5.276 9.528 3.736 12.175-1.539 2.648 11.299 4.944 8.652 6.358-2.647 1.414-191.074 100.999-191.074 100.999s1.638-11.387-1.651-12.553c-3.29-1.165-11.662 4.108-11.68-5.083-.018-9.191 1.61-12.925-3.712-14.485-5.322-1.56-.426-10.769-2.12-11.606a5.417 5.417 0 01-1.52-1.579 5.43 5.43 0 01-.778-2.053z"/>
  <defs>
    <linearGradient id="paint0_linear" x1="184.233" x2="212.47" y1="190.127" y2="257.231" gradientUnits="userSpaceOnUse">
      <stop stop-opacity="0"/>
      <stop offset=".984" stop-color="#4C4C6D"/>
    </linearGradient>
  </defs>
</svg>
