<svg xmlns="http://www.w3.org/2000/svg" width="599" height="700" fill="none" viewBox="0 0 599 700">
  <path fill="#E8F6EF" d="M595.118 117.372L105.166 41.958 5.123 584.55l508.208 82.61 81.787-549.789z"/>
  <path fill="#8484C5" d="M47.26 102.787L233.665 1.752s-1.836 9.971 1.267 11.715c3.103 1.743 10.003-2.21 8.893 2.356-.973 2.372-1.15 5.098-.504 7.767a14.343 14.343 0 004.085 7.024c5.443 5.858 5.275 9.528 3.736 12.175-1.54 2.648 11.299 4.944 8.652 6.358-2.648 1.414-191.074 101-191.074 101s1.638-11.388-1.651-12.553c-3.29-1.166-11.662 4.107-11.68-5.084-.018-9.191 1.61-12.925-3.712-14.485-5.322-1.56-.426-10.769-2.12-11.606a5.393 5.393 0 01-1.52-1.579 5.426 5.426 0 01-.779-2.053z"/>
  <path fill="url(#paint0_linear)" fill-opacity=".2" d="M47.26 102.787L233.665 1.752s-1.836 9.971 1.267 11.715c3.103 1.743 10.003-2.21 8.893 2.356-.973 2.372-1.15 5.098-.504 7.767a14.343 14.343 0 004.085 7.024c5.443 5.858 5.275 9.528 3.736 12.175-1.54 2.648 11.299 4.944 8.652 6.358-2.648 1.414-191.074 101-191.074 101s1.638-11.388-1.651-12.553c-3.29-1.166-11.662 4.107-11.68-5.084-.018-9.191 1.61-12.925-3.712-14.485-5.322-1.56-.426-10.769-2.12-11.606a5.393 5.393 0 01-1.52-1.579 5.426 5.426 0 01-.779-2.053z"/>
  <g>
    <path fill="#8484C5" d="M370.737 650.455L557.144 549.42s-1.837 9.971 1.266 11.714c3.103 1.744 10.004-2.209 8.893 2.357-.973 2.372-1.15 5.098-.504 7.767a14.363 14.363 0 004.085 7.024c5.443 5.858 5.276 9.528 3.736 12.175-1.539 2.648 11.3 4.944 8.652 6.358-2.647 1.414-191.074 100.999-191.074 100.999s1.638-11.387-1.651-12.553c-3.289-1.165-11.662 4.108-11.68-5.083-.018-9.191 1.61-12.925-3.712-14.485-5.321-1.56-.426-10.769-2.119-11.606a5.404 5.404 0 01-1.521-1.579 5.411 5.411 0 01-.778-2.053z"/>
    <path fill="url(#paint1_linear)" fill-opacity=".2" d="M370.737 650.455L557.144 549.42s-1.837 9.971 1.266 11.714c3.103 1.744 10.004-2.209 8.893 2.357-.973 2.372-1.15 5.098-.504 7.767a14.363 14.363 0 004.085 7.024c5.443 5.858 5.276 9.528 3.736 12.175-1.539 2.648 11.3 4.944 8.652 6.358-2.647 1.414-191.074 100.999-191.074 100.999s1.638-11.387-1.651-12.553c-3.289-1.165-11.662 4.108-11.68-5.083-.018-9.191 1.61-12.925-3.712-14.485-5.321-1.56-.426-10.769-2.119-11.606a5.404 5.404 0 01-1.521-1.579 5.411 5.411 0 01-.778-2.053z"/>
  </g>
  <defs>
    <linearGradient id="paint0_linear" x1="230.756" x2="258.993" y1="191.459" y2="258.564" gradientUnits="userSpaceOnUse">
      <stop stop-opacity="0"/>
      <stop offset=".984" stop-color="#4C4C6D"/>
    </linearGradient>
    <linearGradient id="paint1_linear" x1="554.233" x2="582.471" y1="739.127" y2="806.231" gradientUnits="userSpaceOnUse">
      <stop stop-opacity="0"/>
      <stop offset=".984" stop-color="#4C4C6D"/>
    </linearGradient>
  </defs>
</svg>
