<svg xmlns="http://www.w3.org/2000/svg" width="300" height="400" fill="none" viewBox="0 0 300 400">
  <path fill="#E8F6EF" d="M298.108 67.07L52.328 23.976 2.142 334.029l254.938 47.206L298.108 67.07z"/>
  <path fill="#8484C5" d="M23.28 58.736L116.789 1s-.921 5.698.635 6.694c1.557.997 5.018-1.262 4.461 1.347-.488 1.355-.577 2.913-.252 4.438.324 1.525 1.043 2.934 2.049 4.014 2.73 3.347 2.646 5.444 1.874 6.957-.772 1.513 5.668 2.825 4.34 3.633-1.328.808-95.85 57.714-95.85 57.714s.821-6.507-.829-7.173c-1.65-.666-5.85 2.347-5.859-2.905-.009-5.252.808-7.386-1.862-8.277-2.67-.892-.213-6.154-1.063-6.632a2.95 2.95 0 01-.763-.902c-.2-.36-.333-.761-.39-1.173z"/>
  <path fill="url(#paint0_linear)" fill-opacity=".2" d="M23.28 58.736L116.789 1s-.921 5.698.635 6.694c1.557.997 5.018-1.262 4.461 1.347-.488 1.355-.577 2.913-.252 4.438.324 1.525 1.043 2.934 2.049 4.014 2.73 3.347 2.646 5.444 1.874 6.957-.772 1.513 5.668 2.825 4.34 3.633-1.328.808-95.85 57.714-95.85 57.714s.821-6.507-.829-7.173c-1.65-.666-5.85 2.347-5.859-2.905-.009-5.252.808-7.386-1.862-8.277-2.67-.892-.213-6.154-1.063-6.632a2.95 2.95 0 01-.763-.902c-.2-.36-.333-.761-.39-1.173z"/>
  <g>
    <path fill="#8484C5" d="M185.549 371.689l93.509-57.735s-.922 5.698.635 6.694c1.557.997 5.018-1.262 4.461 1.347-.488 1.355-.577 2.913-.253 4.438.325 1.525 1.044 2.934 2.05 4.014 2.73 3.347 2.646 5.444 1.874 6.957-.773 1.513 5.668 2.825 4.34 3.633-1.328.808-95.85 57.714-95.85 57.714s.821-6.507-.829-7.173c-1.65-.666-5.85 2.347-5.859-2.905-.009-5.252.808-7.386-1.862-8.277-2.669-.892-.214-6.154-1.063-6.632a2.962 2.962 0 01-.763-.902c-.2-.36-.333-.761-.39-1.173z"/>
    <path fill="url(#paint1_linear)" fill-opacity=".2" d="M185.549 371.689l93.509-57.735s-.922 5.698.635 6.694c1.557.997 5.018-1.262 4.461 1.347-.488 1.355-.577 2.913-.253 4.438.325 1.525 1.044 2.934 2.05 4.014 2.73 3.347 2.646 5.444 1.874 6.957-.773 1.513 5.668 2.825 4.34 3.633-1.328.808-95.85 57.714-95.85 57.714s.821-6.507-.829-7.173c-1.65-.666-5.85 2.347-5.859-2.905-.009-5.252.808-7.386-1.862-8.277-2.669-.892-.214-6.154-1.063-6.632a2.962 2.962 0 01-.763-.902c-.2-.36-.333-.761-.39-1.173z"/>
  </g>
  <defs>
    <linearGradient id="paint0_linear" x1="115.329" x2="132.922" y1="109.405" y2="146.108" gradientUnits="userSpaceOnUse">
      <stop stop-opacity="0"/>
      <stop offset=".984" stop-color="#4C4C6D"/>
    </linearGradient>
    <linearGradient id="paint1_linear" x1="277.598" x2="295.191" y1="422.358" y2="459.061" gradientUnits="userSpaceOnUse">
      <stop stop-opacity="0"/>
      <stop offset=".984" stop-color="#4C4C6D"/>
    </linearGradient>
  </defs>
</svg>
